<?xml version="1.0" encoding="utf-8"?>
<!-- Svg Vector Icons : http://www.onlinewebfonts.com/icon -->
<!DOCTYPE svg PUBLIC "-//W3C//DTD SVG 1.1//EN" "http://www.w3.org/Graphics/SVG/1.1/DTD/svg11.dtd">
<svg version="1.1" xmlns="http://www.w3.org/2000/svg" xmlns:xlink="http://www.w3.org/1999/xlink" x="0px" y="0px" viewBox="0 0 1000 1000" enable-background="new 0 0 1000 1000" xml:space="preserve">
<metadata> Svg Vector Icons : http://www.onlinewebfonts.com/icon </metadata>
<g><path d="M547.2,500L980.4,66.4c12.8-12.9,12.8-33.8,0-46.6c-12.9-12.9-33.8-12.9-46.6,0L500,453.9L66.3,19.7c-12.9-12.9-33.8-12.9-46.7,0c-12.9,12.8-12.9,33.7,0,46.6L452.8,500L19.6,933.7c-12.8,12.9-12.8,33.7,0,46.6c6.4,6.4,14.9,9.6,23.3,9.6c8.4,0,16.9-3.2,23.3-9.7L500,546.1l433.7,434.2c6.4,6.4,14.9,9.7,23.3,9.7c8.4,0,16.9-3.2,23.3-9.6c12.9-12.9,12.9-33.7,0-46.6L547.2,500z"/></g>
</svg>